<svg xmlns="http://www.w3.org/2000/svg" viewBox="0 0 1900 1000" preserveAspectRatio="xMidYMid meet">
    <rect width="1900" height="1000" fill="#B22234" />
    <rect y="76.923" width="1900" height="76.923" fill="#FFFFFF" />
    <rect y="230.769" width="1900" height="76.923" fill="#FFFFFF" />
    <rect y="384.615" width="1900" height="76.923" fill="#FFFFFF" />
    <rect y="538.462" width="1900" height="76.923" fill="#FFFFFF" />
    <rect y="692.308" width="1900" height="76.923" fill="#FFFFFF" />
    <rect y="846.154" width="1900" height="76.923" fill="#FFFFFF" />
    <rect width="760" height="538.462" fill="#3C3B6E" />
    <polygon
        points="63.3,-5.6 71.3,19.0 97.1,19.0 76.2,34.1 84.2,58.6 63.3,43.5 42.5,58.6 50.4,34.1 29.6,19.0 55.4,19.0"
        fill="#FFFFFF" />
    <polygon
        points="190,-5.6 198,19.0 223.7,19.0 202.9,34.1 210.8,58.6 190,43.5 169.2,58.6 177.1,34.1 156.3,19.0 182,19.0"
        fill="#FFFFFF" />
    <polygon
        points="316.7,-5.6 324.6,19.0 350.4,19.0 329.6,34.1 337.5,58.6 316.7,43.5 295.8,58.6 303.8,34.1 282.9,19.0 308.7,19.0"
        fill="#FFFFFF" />
    <polygon
        points="443.3,-5.6 451.3,19.0 477.1,19.0 456.2,34.1 464.2,58.6 443.3,43.5 422.5,58.6 430.4,34.1 409.6,19.0 435.4,19.0"
        fill="#FFFFFF" />
    <polygon
        points="570,-5.6 578,19.0 603.7,19.0 582.9,34.1 590.8,58.6 570,43.5 549.2,58.6 557.1,34.1 536.3,19.0 562,19.0"
        fill="#FFFFFF" />
    <polygon
        points="696.7,-5.6 704.6,19.0 730.4,19.0 709.6,34.1 717.5,58.6 696.7,43.5 675.8,58.6 683.8,34.1 662.9,19.0 688.7,19.0"
        fill="#FFFFFF" />
    <polygon points="76,54.3 84,78.8 109.7,78.8 88.9,93.9 96.8,118.4 76,103.3 55.2,118.4 63.1,93.9 42.3,78.8 68,78.8"
        fill="#FFFFFF" />
    <polygon
        points="228,54.3 236,78.8 261.7,78.8 240.9,93.9 248.8,118.4 228,103.3 207.2,118.4 215.1,93.9 194.3,78.8 220,78.8"
        fill="#FFFFFF" />
    <polygon
        points="380,54.3 388,78.8 413.7,78.8 392.9,93.9 400.8,118.4 380,103.3 359.2,118.4 367.1,93.9 346.3,78.8 372,78.8"
        fill="#FFFFFF" />
    <polygon
        points="532,54.3 540,78.8 565.7,78.8 544.9,93.9 552.8,118.4 532,103.3 511.2,118.4 519.1,93.9 498.3,78.8 524,78.8"
        fill="#FFFFFF" />
    <polygon
        points="684,54.3 692,78.8 717.7,78.8 696.9,93.9 704.8,118.4 684,103.3 663.2,118.4 671.1,93.9 650.3,78.8 676,78.8"
        fill="#FFFFFF" />
    <polygon
        points="63.3,114.1 71.3,138.6 97.1,138.6 76.2,153.8 84.2,178.3 63.3,163.1 42.5,178.3 50.4,153.8 29.6,138.6 55.4,138.6"
        fill="#FFFFFF" />
    <polygon
        points="190,114.1 198,138.6 223.7,138.6 202.9,153.8 210.8,178.3 190,163.1 169.2,178.3 177.1,153.8 156.3,138.6 182,138.6"
        fill="#FFFFFF" />
    <polygon
        points="316.7,114.1 324.6,138.6 350.4,138.6 329.6,153.8 337.5,178.3 316.7,163.1 295.8,178.3 303.8,153.8 282.9,138.6 308.7,138.6"
        fill="#FFFFFF" />
    <polygon
        points="443.3,114.1 451.3,138.6 477.1,138.6 456.2,153.8 464.2,178.3 443.3,163.1 422.5,178.3 430.4,153.8 409.6,138.6 435.4,138.6"
        fill="#FFFFFF" />
    <polygon
        points="570,114.1 578,138.6 603.7,138.6 582.9,153.8 590.8,178.3 570,163.1 549.2,178.3 557.1,153.8 536.3,138.6 562,138.6"
        fill="#FFFFFF" />
    <polygon
        points="696.7,114.1 704.6,138.6 730.4,138.6 709.6,153.8 717.5,178.3 696.7,163.1 675.8,178.3 683.8,153.8 662.9,138.6 688.7,138.6"
        fill="#FFFFFF" />
    <polygon
        points="76,173.9 84,198.4 109.7,198.4 88.9,213.6 96.8,238.1 76,222.9 55.2,238.1 63.1,213.6 42.3,198.4 68,198.4"
        fill="#FFFFFF" />
    <polygon
        points="228,173.9 236,198.4 261.7,198.4 240.9,213.6 248.8,238.1 228,222.9 207.2,238.1 215.1,213.6 194.3,198.4 220,198.4"
        fill="#FFFFFF" />
    <polygon
        points="380,173.9 388,198.4 413.7,198.4 392.9,213.6 400.8,238.1 380,222.9 359.2,238.1 367.1,213.6 346.3,198.4 372,198.4"
        fill="#FFFFFF" />
    <polygon
        points="532,173.9 540,198.4 565.7,198.4 544.9,213.6 552.8,238.1 532,222.9 511.2,238.1 519.1,213.6 498.3,198.4 524,198.4"
        fill="#FFFFFF" />
    <polygon
        points="684,173.9 692,198.4 717.7,198.4 696.9,213.6 704.8,238.1 684,222.9 663.2,238.1 671.1,213.6 650.3,198.4 676,198.4"
        fill="#FFFFFF" />
    <polygon
        points="63.3,233.8 71.3,258.3 97.1,258.3 76.2,273.4 84.2,297.9 63.3,282.8 42.5,297.9 50.4,273.4 29.6,258.3 55.4,258.3"
        fill="#FFFFFF" />
    <polygon
        points="190,233.8 198,258.3 223.7,258.3 202.9,273.4 210.8,297.9 190,282.8 169.2,297.9 177.1,273.4 156.3,258.3 182,258.3"
        fill="#FFFFFF" />
    <polygon
        points="316.7,233.8 324.6,258.3 350.4,258.3 329.6,273.4 337.5,297.9 316.7,282.8 295.8,297.9 303.8,273.4 282.9,258.3 308.7,258.3"
        fill="#FFFFFF" />
    <polygon
        points="443.3,233.8 451.3,258.3 477.1,258.3 456.2,273.4 464.2,297.9 443.3,282.8 422.5,297.9 430.4,273.4 409.6,258.3 435.4,258.3"
        fill="#FFFFFF" />
    <polygon
        points="570,233.8 578,258.3 603.7,258.3 582.9,273.4 590.8,297.9 570,282.8 549.2,297.9 557.1,273.4 536.3,258.3 562,258.3"
        fill="#FFFFFF" />
    <polygon
        points="696.7,233.8 704.6,258.3 730.4,258.3 709.6,273.4 717.5,297.9 696.7,282.8 675.8,297.9 683.8,273.4 662.9,258.3 688.7,258.3"
        fill="#FFFFFF" />
    <polygon
        points="76,293.6 84,318.1 109.7,318.1 88.9,333.2 96.8,357.8 76,342.6 55.2,357.8 63.1,333.2 42.3,318.1 68,318.1"
        fill="#FFFFFF" />
    <polygon
        points="228,293.6 236,318.1 261.7,318.1 240.9,333.2 248.8,357.8 228,342.6 207.2,357.8 215.1,333.2 194.3,318.1 220,318.1"
        fill="#FFFFFF" />
    <polygon
        points="380,293.6 388,318.1 413.7,318.1 392.9,333.2 400.8,357.8 380,342.6 359.2,357.8 367.1,333.2 346.3,318.1 372,318.1"
        fill="#FFFFFF" />
    <polygon
        points="532,293.6 540,318.1 565.7,318.1 544.9,333.2 552.8,357.8 532,342.6 511.2,357.8 519.1,333.2 498.3,318.1 524,318.1"
        fill="#FFFFFF" />
    <polygon
        points="684,293.6 692,318.1 717.7,318.1 696.9,333.2 704.8,357.8 684,342.6 663.2,357.8 671.1,333.2 650.3,318.1 676,318.1"
        fill="#FFFFFF" />
    <polygon
        points="63.3,353.4 71.3,377.9 97.1,377.9 76.2,393.1 84.2,417.6 63.3,402.4 42.5,417.6 50.4,393.1 29.6,377.9 55.4,377.9"
        fill="#FFFFFF" />
    <polygon
        points="190,353.4 198,377.9 223.7,377.9 202.9,393.1 210.8,417.6 190,402.4 169.2,417.6 177.1,393.1 156.3,377.9 182,377.9"
        fill="#FFFFFF" />
    <polygon
        points="316.7,353.4 324.6,377.9 350.4,377.9 329.6,393.1 337.5,417.6 316.7,402.4 295.8,417.6 303.8,393.1 282.9,377.9 308.7,377.9"
        fill="#FFFFFF" />
    <polygon
        points="443.3,353.4 451.3,377.9 477.1,377.9 456.2,393.1 464.2,417.6 443.3,402.4 422.5,417.6 430.4,393.1 409.6,377.9 435.4,377.9"
        fill="#FFFFFF" />
    <polygon
        points="570,353.4 578,377.9 603.7,377.9 582.9,393.1 590.8,417.6 570,402.4 549.2,417.6 557.1,393.1 536.3,377.9 562,377.9"
        fill="#FFFFFF" />
    <polygon
        points="696.7,353.4 704.6,377.9 730.4,377.9 709.6,393.1 717.5,417.6 696.7,402.4 675.8,417.6 683.8,393.1 662.9,377.9 688.7,377.9"
        fill="#FFFFFF" />
    <polygon
        points="76,413.3 84,437.8 109.7,437.8 88.9,452.9 96.8,477.4 76,462.3 55.2,477.4 63.1,452.9 42.3,437.8 68,437.8"
        fill="#FFFFFF" />
    <polygon
        points="228,413.3 236,437.8 261.7,437.8 240.9,452.9 248.8,477.4 228,462.3 207.2,477.4 215.1,452.9 194.3,437.8 220,437.8"
        fill="#FFFFFF" />
    <polygon
        points="380,413.3 388,437.8 413.7,437.8 392.9,452.9 400.8,477.4 380,462.3 359.2,477.4 367.1,452.9 346.3,437.8 372,437.8"
        fill="#FFFFFF" />
    <polygon
        points="532,413.3 540,437.8 565.7,437.8 544.9,452.9 552.8,477.4 532,462.3 511.2,477.4 519.1,452.9 498.3,437.8 524,437.8"
        fill="#FFFFFF" />
    <polygon
        points="684,413.3 692,437.8 717.7,437.8 696.9,452.9 704.8,477.4 684,462.3 663.2,477.4 671.1,452.9 650.3,437.8 676,437.8"
        fill="#FFFFFF" />
    <polygon
        points="63.3,473.1 71.3,497.6 97.1,497.6 76.2,512.7 84.2,537.2 63.3,522.1 42.5,537.2 50.4,512.7 29.6,497.6 55.4,497.6"
        fill="#FFFFFF" />
    <polygon
        points="190,473.1 198,497.6 223.7,497.6 202.9,512.7 210.8,537.2 190,522.1 169.2,537.2 177.1,512.7 156.3,497.6 182,497.6"
        fill="#FFFFFF" />
    <polygon
        points="316.7,473.1 324.6,497.6 350.4,497.6 329.6,512.7 337.5,537.2 316.7,522.1 295.8,537.2 303.8,512.7 282.9,497.6 308.7,497.6"
        fill="#FFFFFF" />
    <polygon
        points="443.3,473.1 451.3,497.6 477.1,497.6 456.2,512.7 464.2,537.2 443.3,522.1 422.5,537.2 430.4,512.7 409.6,497.6 435.4,497.6"
        fill="#FFFFFF" />
    <polygon
        points="570,473.1 578,497.6 603.7,497.6 582.9,512.7 590.8,537.2 570,522.1 549.2,537.2 557.1,512.7 536.3,497.6 562,497.6"
        fill="#FFFFFF" />
    <polygon
        points="696.7,473.1 704.6,497.6 730.4,497.6 709.6,512.7 717.5,537.2 696.7,522.1 675.8,537.2 683.8,512.7 662.9,497.6 688.7,497.6"
        fill="#FFFFFF" />
</svg>